<svg width="22.000000" height="28.000000" viewBox="0 0 22 28" fill="none" xmlns="http://www.w3.org/2000/svg" xmlns:xlink="http://www.w3.org/1999/xlink">
    <defs>
        <clipPath id="clip84_77">
            <rect id="svg" width="22.000000" height="28.000000" fill="white" fill-opacity="0"/>
        </clipPath>
    </defs>
    <g clip-path="url(#clip84_77)">
        <path id="path" d="M11 26.7C16.52 26.7 21 22.38 21 17.05C21 8.04 11 0.96 11 0.96C11 0.96 1 8.04 1 17.05C1 22.38 5.46 26.7 11 26.7Z" fill="#000000" fill-opacity="0" fill-rule="evenodd"/>
        <path id="path" d="M21 17.05C21 8.04 11 0.96 11 0.96C11 0.96 1 8.04 1 17.05C1 22.38 5.46 26.7 11 26.7C16.52 26.7 21 22.38 21 17.05Z" fill="#000000" fill-opacity="0" fill-rule="nonzero"/>
        <path id="path" d="M11 0.96C11 0.96 1 8.04 1 17.05C1 22.38 5.46 26.7 11 26.7C16.52 26.7 21 22.38 21 17.05C21 8.04 11 0.96 11 0.96Z" stroke="#51D1E0" stroke-opacity="1.000000" stroke-width="2.000000" stroke-linejoin="round"/>
        <path id="A" d="M9.72 7.58L9.7 7.48C9.4 7.4 9 7.36 8.48 7.36C7.97 7.36 7.42 7.39 6.86 7.46C6.29 7.53 5.93 7.59 5.78 7.63C5.71 7.79 5.68 7.97 5.68 8.17C5.92 8.29 6.29 8.38 6.79 8.45L4.94 13.92C4.68 13.98 4.38 14.07 4.05 14.21L4.15 14.8L6.82 14.8C6.87 14.72 6.93 14.58 6.98 14.39C7.05 14.19 7.08 14.02 7.08 13.87L6.32 13.77C6.33 13.75 6.45 13.42 6.67 12.79L9.14 12.79L9.58 13.99C9.48 14.02 9.28 14.1 8.98 14.21L9.08 14.8L11.75 14.8C11.91 14.47 12 14.16 12 13.87L10.96 13.74L9.12 8.5C9.32 8.46 9.47 8.4 9.57 8.33C9.67 8.12 9.72 7.87 9.72 7.58ZM7.97 8.99L8.28 10.39L8.82 11.79L6.98 11.79L7.51 10.46L7.86 8.99L7.97 8.99Z" fill="#51D1E0" fill-opacity="1.000000" fill-rule="evenodd"/>
        <path id="M" d="M14.72 15.09L13.7 20.35L13.59 20.35L12.12 15.09L9.04 15.09L8.95 15.73L9.85 16.01L9.09 21.62C8.88 21.67 8.57 21.77 8.16 21.93L8.26 22.52L10.93 22.52C11.1 22.19 11.19 21.88 11.19 21.59L10.43 21.5L11.36 16.8L13.1 22L14.22 22L15.34 17.3L16.19 21.62C15.98 21.67 15.67 21.77 15.26 21.93L15.36 22.52L18.04 22.52C18.2 22.19 18.29 21.88 18.29 21.59L17.53 21.5L16.75 16.01C17.01 15.95 17.31 15.86 17.66 15.73C17.66 15.6 17.63 15.39 17.58 15.09L14.72 15.09Z" fill="#51D1E0" fill-opacity="1.000000" fill-rule="evenodd"/>
    </g>
</svg>
