<svg width="99.723022" height="104.347839" viewBox="0 0 99.723 104.348" fill="none" xmlns="http://www.w3.org/2000/svg" xmlns:xlink="http://www.w3.org/1999/xlink">
    <defs>
        <clipPath id="clip40_6">
            <rect id="Защищать" width="99.723000" height="104.347824" fill="white" fill-opacity="0"/>
        </clipPath>
    </defs>
    <g clip-path="url(#clip40_6)">
        <path id="path" d="M12.46 20.12L49.87 8.69L87.25 20.12L87.25 43.55C87.25 68.17 72.19 90.04 49.86 97.82C27.53 90.04 12.46 68.17 12.46 43.54L12.46 20.12Z" fill="#000000" fill-opacity="0" fill-rule="nonzero"/>
        <path id="path" d="M49.87 8.69L87.25 20.12L87.25 43.55C87.25 68.17 72.19 90.04 49.86 97.82C27.53 90.04 12.46 68.17 12.46 43.54L12.46 20.12L49.87 8.69Z" stroke="#FFFFFF" stroke-opacity="1.000000" stroke-width="6.250000" stroke-linejoin="round"/>
        <path id="path" d="M28.72 52.42L28.69 52.42C27.48 51.15 27.53 49.21 28.79 48C30.06 46.79 32 46.83 33.21 48.1L33.21 48.13L28.72 52.42ZM68.17 37.26L68.16 37.23C69.37 35.96 71.32 35.92 72.58 37.13C73.85 38.34 73.89 40.28 72.68 41.55L72.65 41.55L68.17 37.26Z" fill="#000000" fill-opacity="0" fill-rule="nonzero"/>
        <path id="path" d="M30.95 50.26L45.49 65.47L70.42 39.39" stroke="#FFFFFF" stroke-opacity="1.000000" stroke-width="6.250000" stroke-linejoin="round" stroke-linecap="round"/>
    </g>
</svg>
