<svg width="110.803345" height="115.942017" viewBox="0 0 110.803 115.942" fill="none" xmlns="http://www.w3.org/2000/svg" xmlns:xlink="http://www.w3.org/1999/xlink">
    <defs>
        <clipPath id="clip40_11">
            <rect id="Успех" width="110.803322" height="115.942032" fill="white" fill-opacity="0"/>
        </clipPath>
    </defs>
    <g clip-path="url(#clip40_11)">
        <path id="path" d="M55.4 9.66L67.52 18.91L82.53 18.88L87.14 33.83L99.31 43.04L94.64 57.97L99.31 72.89L87.14 82.1L82.53 97.05L67.52 97.02L55.4 106.28L43.27 97.02L28.26 97.05L23.65 82.1L11.49 72.89L16.15 57.97L11.49 43.04L23.65 33.83L28.26 18.88L43.27 18.91L55.4 9.66Z" fill="#000000" fill-opacity="0" fill-rule="nonzero"/>
        <path id="path" d="M67.52 18.91L82.53 18.88L87.14 33.83L99.31 43.04L94.64 57.97L99.31 72.89L87.14 82.1L82.53 97.05L67.52 97.02L55.4 106.28L43.27 97.02L28.26 97.05L23.65 82.1L11.49 72.89L16.15 57.97L11.49 43.04L23.65 33.83L28.26 18.88L43.27 18.91L55.4 9.66L67.52 18.91Z" stroke="#FFFFFF" stroke-opacity="1.000000" stroke-width="6.250000" stroke-linejoin="round"/>
        <path id="path" d="M37.01 60.13L36.98 60.13C35.77 58.86 35.81 56.92 37.08 55.71C38.34 54.5 40.29 54.54 41.5 55.81L41.5 55.84L37.01 60.13ZM71.61 43.76L71.6 43.73C72.81 42.46 74.76 42.42 76.02 43.63C77.29 44.84 77.33 46.78 76.12 48.05L76.09 48.05L71.61 43.76Z" fill="#000000" fill-opacity="0" fill-rule="nonzero"/>
        <path id="path" d="M39.24 57.97L50.78 70.04L73.86 45.89" stroke="#FFFFFF" stroke-opacity="1.000000" stroke-width="6.250000" stroke-linejoin="round" stroke-linecap="round"/>
    </g>
</svg>
